<mxfile host="65bd71144e">
    <diagram id="Pwh17KiYS3t1jNNCGKba" name="Page-1">
        <mxGraphModel dx="1971" dy="1440" grid="1" gridSize="10" guides="1" tooltips="1" connect="1" arrows="1" fold="1" page="1" pageScale="1" pageWidth="300" pageHeight="400" background="#E3D3D8" math="0" shadow="0">
            <root>
                <mxCell id="0"/>
                <mxCell id="1" parent="0"/>
                <mxCell id="129" value="" style="shape=note;whiteSpace=wrap;html=1;backgroundOutline=1;darkOpacity=0.05;" parent="1" vertex="1">
                    <mxGeometry x="284" y="270" width="136" height="170" as="geometry"/>
                </mxCell>
                <mxCell id="130" value="tb_user" style="text;html=1;align=center;verticalAlign=middle;resizable=0;points=[];autosize=1;strokeColor=none;fillColor=none;fontStyle=1" parent="1" vertex="1">
                    <mxGeometry x="317" y="270" width="70" height="30" as="geometry"/>
                </mxCell>
                <mxCell id="131" value="username: String" style="text;html=1;align=center;verticalAlign=middle;resizable=0;points=[];autosize=1;strokeColor=none;fillColor=none;" parent="1" vertex="1">
                    <mxGeometry x="284" y="340" width="110" height="30" as="geometry"/>
                </mxCell>
                <mxCell id="132" value="id: integer (&lt;b&gt;PK&lt;/b&gt;)" style="text;html=1;align=center;verticalAlign=middle;resizable=0;points=[];autosize=1;strokeColor=none;fillColor=none;" parent="1" vertex="1">
                    <mxGeometry x="284" y="320" width="100" height="30" as="geometry"/>
                </mxCell>
                <mxCell id="133" value="password: String" style="text;html=1;align=center;verticalAlign=middle;resizable=0;points=[];autosize=1;strokeColor=none;fillColor=none;" parent="1" vertex="1">
                    <mxGeometry x="284" y="360" width="110" height="30" as="geometry"/>
                </mxCell>
                <mxCell id="134" value="email: String (unique)" style="text;html=1;align=center;verticalAlign=middle;resizable=0;points=[];autosize=1;strokeColor=none;fillColor=none;" parent="1" vertex="1">
                    <mxGeometry x="280" y="380" width="140" height="30" as="geometry"/>
                </mxCell>
                <mxCell id="135" value="" style="shape=note;whiteSpace=wrap;html=1;backgroundOutline=1;darkOpacity=0.05;" parent="1" vertex="1">
                    <mxGeometry x="534" y="330" width="136" height="170" as="geometry"/>
                </mxCell>
                <mxCell id="136" value="tb_post" style="text;html=1;align=center;verticalAlign=middle;resizable=0;points=[];autosize=1;strokeColor=none;fillColor=none;fontStyle=1" parent="1" vertex="1">
                    <mxGeometry x="567" y="330" width="70" height="30" as="geometry"/>
                </mxCell>
                <mxCell id="137" value="content: String" style="text;html=1;align=center;verticalAlign=middle;resizable=0;points=[];autosize=1;strokeColor=none;fillColor=none;" parent="1" vertex="1">
                    <mxGeometry x="530" y="400" width="100" height="30" as="geometry"/>
                </mxCell>
                <mxCell id="138" value="id: integer (&lt;b&gt;PK&lt;/b&gt;)" style="text;html=1;align=center;verticalAlign=middle;resizable=0;points=[];autosize=1;strokeColor=none;fillColor=none;" parent="1" vertex="1">
                    <mxGeometry x="534" y="380" width="100" height="30" as="geometry"/>
                </mxCell>
                <mxCell id="139" value="fk_user: integer (&lt;b&gt;FK&lt;/b&gt;)" style="text;html=1;align=center;verticalAlign=middle;resizable=0;points=[];autosize=1;strokeColor=none;fillColor=none;" parent="1" vertex="1">
                    <mxGeometry x="530" y="440" width="130" height="30" as="geometry"/>
                </mxCell>
                <mxCell id="140" value="fk_label: integer (&lt;b&gt;FK&lt;/b&gt;)" style="text;html=1;align=center;verticalAlign=middle;resizable=0;points=[];autosize=1;strokeColor=none;fillColor=none;" parent="1" vertex="1">
                    <mxGeometry x="525" y="460" width="140" height="30" as="geometry"/>
                </mxCell>
                <mxCell id="148" value="" style="shape=note;whiteSpace=wrap;html=1;backgroundOutline=1;darkOpacity=0.05;" parent="1" vertex="1">
                    <mxGeometry x="784" y="270" width="136" height="170" as="geometry"/>
                </mxCell>
                <mxCell id="149" value="tb_label" style="text;html=1;align=center;verticalAlign=middle;resizable=0;points=[];autosize=1;strokeColor=none;fillColor=none;fontStyle=1" parent="1" vertex="1">
                    <mxGeometry x="817" y="270" width="70" height="30" as="geometry"/>
                </mxCell>
                <mxCell id="150" value="name: String" style="text;html=1;align=center;verticalAlign=middle;resizable=0;points=[];autosize=1;strokeColor=none;fillColor=none;" parent="1" vertex="1">
                    <mxGeometry x="780" y="340" width="90" height="30" as="geometry"/>
                </mxCell>
                <mxCell id="151" value="id: integer (&lt;b&gt;PK&lt;/b&gt;)" style="text;html=1;align=center;verticalAlign=middle;resizable=0;points=[];autosize=1;strokeColor=none;fillColor=none;" parent="1" vertex="1">
                    <mxGeometry x="784" y="320" width="100" height="30" as="geometry"/>
                </mxCell>
                <mxCell id="152" value="color: integer - Enum" style="text;html=1;align=center;verticalAlign=middle;resizable=0;points=[];autosize=1;strokeColor=none;fillColor=none;" parent="1" vertex="1">
                    <mxGeometry x="780" y="360" width="130" height="30" as="geometry"/>
                </mxCell>
                <mxCell id="158" value="" style="shape=flexArrow;endArrow=classic;html=1;strokeColor=#FFF7FB;fillColor=#FFFFFF;width=0.8333333333333334;endSize=5.0375000000000005;endWidth=7.5694444444444455;exitX=-0.025;exitY=0.497;exitDx=0;exitDy=0;exitPerimeter=0;" parent="1" source="139" edge="1">
                    <mxGeometry width="50" height="50" relative="1" as="geometry">
                        <mxPoint x="450" y="400" as="sourcePoint"/>
                        <mxPoint x="400" y="330" as="targetPoint"/>
                    </mxGeometry>
                </mxCell>
                <mxCell id="160" value="" style="shape=flexArrow;endArrow=classic;html=1;strokeColor=#FFF7FB;fillColor=#FFFFFF;width=0.8333333333333334;endSize=5.0375000000000005;endWidth=7.5694444444444455;" parent="1" edge="1">
                    <mxGeometry width="50" height="50" relative="1" as="geometry">
                        <mxPoint x="650" y="480" as="sourcePoint"/>
                        <mxPoint x="790" y="330" as="targetPoint"/>
                    </mxGeometry>
                </mxCell>
                <mxCell id="161" value="latest_date: Date()" style="text;html=1;align=center;verticalAlign=middle;resizable=0;points=[];autosize=1;strokeColor=none;fillColor=none;" parent="1" vertex="1">
                    <mxGeometry x="530" y="420" width="120" height="30" as="geometry"/>
                </mxCell>
            </root>
        </mxGraphModel>
    </diagram>
</mxfile>